<svg viewBox="0 0 71 73" fill="none" xmlns="http://www.w3.org/2000/svg">
<path d="M35.5 0C30.8381 -3.63867e-06 26.2218 0.944091 21.9147 2.77839C17.6077 4.61268 13.6942 7.30126 10.3977 10.6906C7.10121 14.0799 4.4863 18.1037 2.70226 22.5321C0.918221 26.9604 -7.46055e-06 31.7068 0 36.5C-5.64323e-06 41.2933 0.918226 46.0396 2.70227 50.468C4.4863 54.8963 7.10121 58.9201 10.3977 62.3094C13.6942 65.6987 17.6077 68.3873 21.9147 70.2216C26.2218 72.0559 30.8381 73 35.5 73C40.1619 73 44.7782 72.0559 49.0853 70.2216C53.3923 68.3873 57.3058 65.6987 60.6023 62.3094C63.8988 58.9201 66.5137 54.8963 68.2977 50.468C70.0818 46.0396 71 41.2933 71 36.5C71 31.7068 70.0818 26.9604 68.2977 22.532C66.5137 18.1037 63.8988 14.0799 60.6023 10.6906C57.3058 7.30125 53.3923 4.61268 49.0853 2.77839C44.7782 0.944092 40.1619 -5.21216e-06 35.5 0ZM23.2497 5.82065L24.5818 6.39385C27.0887 7.47139 28.9147 8.57582 30.0623 9.71845C31.2092 10.8603 31.8524 12.2033 31.9469 13.735C32.0615 15.2643 31.5506 17.4019 30.4207 20.181C29.131 23.3529 28.4476 25.4125 28.3558 26.299C28.2621 27.2037 28.3827 28.1355 28.7183 29.0617C29.0435 29.9599 30.0267 30.8222 31.6966 31.6069L31.7817 31.6466L29.5249 37.1979L29.4364 37.1605C27.7427 36.4495 26.2905 36.39 25.082 36.9577C23.8874 37.5304 22.5919 39.4359 21.2579 42.7169C20.2232 45.2616 19.3601 47.1037 18.677 48.2551C17.9901 49.4129 17.084 50.2443 15.9787 50.7469C14.8756 51.2485 13.6476 51.4397 12.2992 51.2867C10.9503 51.1338 9.1918 50.5969 7.02148 49.6641L5.68906 49.0914L7.95378 43.5226L8.04261 43.5608C9.12242 44.0249 10.0172 44.3462 10.7202 44.5232C11.4233 44.7003 11.9354 44.7276 12.2337 44.6284C12.8518 44.423 13.4722 43.674 14.0324 42.3761V42.3758C15.6842 38.5958 16.8198 36.2024 17.4688 35.1797C18.109 34.1762 18.9239 33.315 19.9003 32.6264C20.8562 31.9422 22.0828 31.5265 23.5802 31.3559C22.6329 29.9983 22.0428 28.7931 21.8417 27.7743C21.6354 26.7296 21.6284 25.6832 21.8344 24.644C22.0409 23.6045 22.6202 21.7783 23.5684 19.1634C24.0419 17.8576 24.4011 16.823 24.6464 16.0637C24.8912 15.3056 25.0215 14.8124 25.0393 14.6283C25.0632 14.2314 24.9126 13.8155 24.5444 13.345C24.3724 13.1252 23.994 12.8419 23.4164 12.5161C22.8387 12.1904 22.0614 11.8184 21.0854 11.3989L20.9966 11.3607L23.2123 5.91184L23.2497 5.82065ZM41.6626 13.7346L46.9252 15.997L29.3306 59.27L24.0676 57.0077L41.6253 13.8259L41.6626 13.7346ZM57.7309 21.6435C58.0528 21.6435 58.3825 21.6562 58.7196 21.6944C60.0685 21.8475 61.827 22.3846 63.9973 23.3174L65.3294 23.8902L63.0767 29.4303L62.9879 29.3921C61.8592 28.907 60.9349 28.577 60.2195 28.401C59.5042 28.2249 58.9968 28.2091 58.7204 28.3206C58.1353 28.5564 57.5469 29.3063 56.992 30.591V30.5914H56.9916C55.4335 34.1412 54.3776 36.4179 53.7792 37.4407C53.1816 38.4619 52.4235 39.3475 51.4667 40.1117L51.4663 40.1121C50.5331 40.8478 49.1889 41.3457 47.4231 41.6268C48.4289 42.9931 49.042 44.3661 49.2125 45.735C49.3886 47.1492 49.1068 48.9339 48.357 51.1022L46.0591 57.7607C45.947 58.4278 46.0817 59.011 46.4686 59.5343C46.8416 60.0386 47.982 60.7441 49.8907 61.5644L49.9795 61.6026L47.7148 67.1718L46.4107 66.6111C43.9037 65.5335 42.0781 64.4288 40.9305 63.2861C39.7836 62.1442 39.1404 60.8016 39.0459 59.2699C38.9312 57.7397 39.4621 55.594 40.5861 52.8296C41.8228 49.788 42.5034 47.7808 42.6347 46.8704V46.87C42.7537 45.9421 42.658 44.9897 42.3205 44.0299V44.0295L42.3201 44.0291C41.9977 43.0825 40.9933 42.1943 39.2958 41.3977L39.2108 41.358L41.474 35.7923L41.5624 35.8297C43.2565 36.5411 44.6943 36.5946 45.918 36.0318C47.1045 35.4737 48.413 33.5398 49.7586 30.2305C50.7874 27.7001 51.6449 25.872 52.3425 24.7259C53.0432 23.5748 53.948 22.7439 55.0389 22.2352L55.0393 22.2348H55.0397C55.8671 21.8586 56.765 21.657 57.7309 21.6443V21.6435Z" fill="#0B3F8C"/>
</svg>
